<?xml version="1.0" encoding="utf-8"?>
<!-- Generator: Adobe Illustrator 19.2.0, SVG Export Plug-In . SVG Version: 6.00 Build 0)  -->
<svg version="1.1" id="Layer_1" xmlns="http://www.w3.org/2000/svg" xmlns:xlink="http://www.w3.org/1999/xlink" x="0px" y="0px"
	 viewBox="0 0 773 290" style="enable-background:new 0 0 773 290;" xml:space="preserve">
<style type="text/css">
	.st0{fill:#FFFFFF;}
</style>
<g>
	<path class="st0" d="M85.5,10H113c32.7,0,40.7,21.1,32.3,59.5l-2.8,12.4c-8,37.9-19.9,47.5-36.7,50.7c13.6,4.8,27.9,18.8,19.2,60.6
		l-4.4,20.7c-7.6,35.5-14.4,61.8-59.9,61.8H29.2L85.5,10z M36.8,269.8h24.3c35.1,0,44.7-14.4,53.5-57.5l4-19.2
		c9.2-43.9-4.8-58.3-32.3-58.3H65.1L36.8,269.8z M87.9,128.9c26.7,0,39.5-5.6,48.3-46.7l3.2-14.8c7.2-32.7,2.8-51.5-27.5-51.5H90.7
		L66.7,128.9H87.9z"/>
	<path class="st0" d="M205.2,10l-45.9,214.3c-4.4,21.1-6.4,49.1,28.7,49.1c28.7,0,35.1-21.9,41.1-49.5L275,10h6.4l-45.9,214.3
		c-8,36.3-16.4,55.1-49.1,55.1c-30.3,0-40.7-19.6-33.9-52.3L198.8,10H205.2z"/>
	<path class="st0" d="M332.4,10l-56.3,265.7h-6.4L326.1,10H332.4z"/>
	<path class="st0" d="M377.9,10h6.4l-55.1,259.8h62.2l-2.8,6h-67L377.9,10z"/>
	<path class="st0" d="M471.3,10H500c39.1,0,45.1,33.1,36.3,74.6l-25.5,118.1c-8.8,41.5-17.2,73-62.6,73H415L471.3,10z M422.6,269.8
		h25.1c28.7,0,45.1-11.2,55.9-62.6L529.1,87c6-28.7,10.4-71-28.7-71h-23.9L422.6,269.8z"/>
	<path class="st0" d="M627.3,137.3h-55.1l-27.9,132.5h63.4l-2.8,6h-68.2L593,10h65.4l-1.2,6h-59.1l-24.7,115.3h55.1L627.3,137.3z"/>
	<path class="st0" d="M688.7,10h27.5c33.9,0,41.1,22.3,33.1,63L747,85c-8,39.9-20.7,49.9-38.3,53.5c20.3,8,18.4,33.9,10.8,68.2
		c-4.8,23.1-11.6,53.9-12.8,69h-6c0.8-10.8,8-49.1,12.8-70.2c12.8-55.5,0.8-64.6-24.3-64.6h-21.9l-28.3,134.9h-6.4L688.7,10z
		 M668.4,134.9h23.1c27.5,0,40.7-10,48.7-48.7l2.4-11.6C749.4,42,749.8,16,714.7,16h-20.7L668.4,134.9z"/>
</g>
</svg>
