<?xml version="1.0" encoding="utf-8"?>
<!-- Generator: Adobe Illustrator 19.2.0, SVG Export Plug-In . SVG Version: 6.00 Build 0)  -->
<svg version="1.1" id="Layer_2" xmlns="http://www.w3.org/2000/svg" xmlns:xlink="http://www.w3.org/1999/xlink" x="0px" y="0px"
	 viewBox="0 0 773 290" style="enable-background:new 0 0 773 290;" xml:space="preserve">
<style type="text/css">
	.st0{fill:#FFFFFF;}
</style>
<g>
	<g>
		<path class="st0" d="M102.3,124.1c5.9-9,16.7-16.7,34.1-16.7c31.9,0,45.1,26.4,45.1,58.3v4.4c0,31.9-13.2,58.3-45.1,58.3
			c-18.7,0-29.5-8.8-35.4-18.7l-2,16.5h-6.6l1.1-33v-143h8.8V124.1z M135.3,220c24.9,0,37-19.6,37-49.9v-4.4
			c0-30.4-12.1-49.9-37-49.9c-17.8,0-27.5,11.4-33,20.2v63.8C107.8,208.6,117.5,220,135.3,220z"/>
		<path class="st0" d="M212.3,109.6V191c0,20.9,12.1,29,28.6,29c20.9,0,30.8-11.4,36.3-20.2v-90.2h8.8v83.6l1.1,33h-6.6l-2.2-16.9
			c-6.4,10.1-18.9,19.1-39.6,19.1c-22,0-35.2-14.3-35.2-36.3v-82.5H212.3z"/>
		<path class="st0" d="M325.6,77.7h-13.2V64.5h13.2V77.7z M314.6,109.6h8.8v116.6h-8.8V109.6z"/>
		<path class="st0" d="M354.2,50.2h8.8v176h-8.8V50.2z"/>
		<path class="st0" d="M467.5,124.1V50.2h8.8v143l1.1,33h-6.6l-2.2-16.5c-5.7,9.9-16.7,18.7-35.2,18.7c-31.9,0-45.1-26.4-45.1-58.3
			v-4.4c0-31.9,13.2-58.3,45.1-58.3C450.8,107.4,461.4,115.1,467.5,124.1z M467.5,136c-5.5-8.8-15.2-20.2-33-20.2
			c-24.9,0-37,19.6-37,49.9v4.4c0,30.4,12.1,49.9,37,49.9c17.8,0,27.5-11.4,33-20.2V136z"/>
		<path class="st0" d="M508.7,172c0.4,28.6,12.1,48,39.2,48c27.1,0,37.4-16.9,37.4-31.2h8.8v0.9c0,16.7-13.6,38.7-46.2,38.7
			c-34.1,0-48.4-26.4-48.4-58.3v-4.4c0-31.9,14.1-58.3,47.3-58.3c33.2,0,47.3,26.4,47.3,58.3v6.4H508.7z M508.7,163.7h76.1
			c-0.7-28.6-12.5-48-38.1-48C521,115.7,509.1,135.1,508.7,163.7z"/>
		<path class="st0" d="M661.1,107.6v8.1h-2.2c-18.7,0-27.5,11.4-33,20.2v90.2h-8.8v-83.6l-1.1-33h6.6l2,16.5
			c5.9-9.9,16.7-18.7,33.2-18.7C659.4,107.4,661.1,107.6,661.1,107.6z"/>
	</g>
	<g>
		<path class="st0" d="M677.7,90.6h-5.1V54.9h-10.6v-4.8h26.4v4.8h-10.7V90.6z M713.4,90.6h-6l-9-33l0.3,10.5v22.5h-5.1V50.1h7.8
			l9,32.7l9-32.7h7.8v40.5h-5.1V68.1l0.3-10.5L713.4,90.6z"/>
	</g>
</g>
</svg>
